<?xml version="1.0" encoding="utf-8"?>
<!-- Generator: Adobe Illustrator 22.0.1, SVG Export Plug-In . SVG Version: 6.00 Build 0)  -->
<svg version="1.1" id="Layer_1" xmlns="http://www.w3.org/2000/svg" xmlns:xlink="http://www.w3.org/1999/xlink" x="0px" y="0px"
	 viewBox="0 0 41.3 41" style="enable-background:new 0 0 41.3 41;" xml:space="preserve">
<style type="text/css">
	.st0{fill:#A8A8A7;}
</style>
<path class="st0" d="M20.9,0.3c-11,0-20,9-20,20c0,11,9,20,20,20c11,0,20-9,20-20C40.9,9.3,31.9,0.3,20.9,0.3L20.9,0.3z M25.8,21
	h-3.3v11.6h-4.8V21h-2.3v-4.1h2.3v-2.7c0-1.9,0.9-4.9,4.9-4.9l3.6,0v4h-2.6c-0.4,0-1,0.2-1,1.1v2.4h3.7L25.8,21z M25.8,21"/>
</svg>
