<?xml version="1.0" encoding="utf-8"?>
<!-- Generator: Adobe Illustrator 22.0.1, SVG Export Plug-In . SVG Version: 6.00 Build 0)  -->
<svg version="1.1" id="Layer_1" xmlns="http://www.w3.org/2000/svg" xmlns:xlink="http://www.w3.org/1999/xlink" x="0px" y="0px"
	 viewBox="0 0 41.3 41" style="enable-background:new 0 0 41.3 41;" xml:space="preserve">
<style type="text/css">
	.st0{fill:#A8A8A7;}
</style>
<g>
	<g>
		<path class="st0" d="M18,23.8c-0.1-0.1-0.3-0.2-0.4-0.3c-0.4-0.1-0.8-0.2-1.3-0.2h-0.1c-2,0-3.8,1.2-3.8,2.6
			c0,1.5,1.5,2.7,3.5,2.7c2.6,0,3.9-0.9,3.9-2.6c0-0.2,0-0.3-0.1-0.5C19.5,24.9,18.9,24.5,18,23.8z M16.6,18.5
			c0.5,0,0.9-0.2,1.2-0.6c0.5-0.6,0.7-1.5,0.6-2.5c-0.2-1.8-1.5-3.2-2.8-3.3l-0.1,0c-0.5,0-0.9,0.2-1.2,0.6
			c-0.5,0.6-0.7,1.4-0.6,2.4C14,17,15.2,18.5,16.6,18.5L16.6,18.5z M20.7,0.5c-11,0-20,9-20,20c0,11,9,20,20,20c11,0,20-9,20-20
			C40.7,9.5,31.7,0.5,20.7,0.5z M18.4,30.3c-0.8,0.2-1.6,0.3-2.4,0.3c-1,0-1.9-0.1-2.7-0.3c-1.7-0.4-2.9-1.2-3.5-2.2
			c-0.2-0.4-0.4-0.9-0.4-1.4c0-0.5,0.1-1,0.4-1.5c0.9-1.9,3.3-3.2,6-3.2h0.1c-0.2-0.4-0.3-0.8-0.3-1.2c0-0.2,0-0.4,0.1-0.6
			c-2.8-0.1-4.9-2.1-4.9-4.8c0-1.9,1.5-3.7,3.7-4.5c0.6-0.2,1.3-0.3,2-0.3h5.9c0.2,0,0.4,0.1,0.4,0.3c0.1,0.2,0,0.4-0.2,0.5l-1.3,1
			c-0.1,0.1-0.2,0.1-0.3,0.1h-0.5c0.6,0.7,1,1.8,1,3c0,1.3-0.7,2.5-1.9,3.5c-0.9,0.7-1,0.9-1,1.3c0,0.2,0.7,1,1.4,1.5
			c1.7,1.2,2.3,2.3,2.3,4.2C22.2,27.8,20.7,29.6,18.4,30.3z M31.8,20.1c0,0.3-0.2,0.5-0.5,0.5h-3.4v3.4c0,0.3-0.2,0.5-0.5,0.5h-1
			c-0.3,0-0.5-0.2-0.5-0.5v-3.4h-3.4c-0.3,0-0.5-0.2-0.5-0.5v-1c0-0.3,0.2-0.5,0.5-0.5H26v-3.4c0-0.3,0.2-0.5,0.5-0.5h1
			c0.3,0,0.5,0.2,0.5,0.5v3.4h3.4c0.3,0,0.5,0.2,0.5,0.5V20.1z"/>
	</g>
</g>
</svg>
