<?xml version="1.0" encoding="utf-8"?>
<!-- Generator: Adobe Illustrator 22.0.1, SVG Export Plug-In . SVG Version: 6.00 Build 0)  -->
<svg version="1.1" id="Layer_1" xmlns="http://www.w3.org/2000/svg" xmlns:xlink="http://www.w3.org/1999/xlink" x="0px" y="0px"
	 viewBox="0 0 68.7 68.3" style="enable-background:new 0 0 68.7 68.3;" xml:space="preserve">
<style type="text/css">
	.st0{fill:#D01B49;}
</style>
<path class="st0" d="M27.4,25.8c2.6,0,5-1,6.9-3c1.6-1.6,3.4-4.7,3.2-9.8c-0.2-5.9-4.8-8.9-9.2-9.4c-0.3,0-1.3,0-1.5,0
	C22.3,4,17.6,7.1,17.3,13c-0.2,5.1,1.7,8.2,3.2,9.8C22.4,24.7,24.8,25.8,27.4,25.8L27.4,25.8z M32.3,20.9c-1.3,1.4-3,2.1-4.9,2.1
	s-3.6-0.7-4.9-2.1c-1.3-1.4-2.1-3.3-2.4-5.5c5-0.3,10.2-1.5,14.4-3.4c0.1,0.4,0.1,0.7,0.1,1.1C34.9,16.4,34,19.1,32.3,20.9
	L32.3,20.9z M27.4,6.4c2.4,0.1,4.8,1.1,6.1,3.1c-3.9,1.8-8.7,2.9-13.4,3.2C20.6,8.5,24.1,6.5,27.4,6.4L27.4,6.4z M44.6,40
	c-6.8,0-12.3,5.5-12.3,12.3c0,6.8,5.5,12.3,12.3,12.3c6.8,0,12.3-5.5,12.3-12.3C56.9,45.5,51.4,40,44.6,40L44.6,40z M44.6,61.9
	c-5.3,0-9.5-4.3-9.5-9.5c0-5.3,4.3-9.5,9.5-9.5c5.3,0,9.5,4.3,9.5,9.5C54.1,57.6,49.8,61.9,44.6,61.9L44.6,61.9z M46,52.2v5
	c0,0.8-0.6,1.4-1.4,1.4c-0.8,0-1.4-0.6-1.4-1.4v-5c0-0.8,0.6-1.4,1.4-1.4C45.3,50.9,46,51.5,46,52.2L46,52.2z M46,47.4
	c0,0.8-0.6,1.4-1.4,1.4c-0.8,0-1.4-0.6-1.4-1.4c0-0.8,0.6-1.4,1.4-1.4h0C45.3,46,46,46.6,46,47.4L46,47.4z M27.7,55.6
	c0,0.8-0.6,1.4-1.4,1.4H13.2c-0.4,0-0.8-0.2-1.1-0.5c-0.3-0.3-0.4-0.7-0.3-1.1l3.3-17.7c1.1-6.2,7-9,12.3-9c5.7,0,10.3,2.9,11.9,7.4
	c0.3,0.7-0.1,1.5-0.9,1.8c-0.7,0.3-1.5-0.1-1.8-0.9c-1.4-4.1-5.9-5.6-9.3-5.6c-4.1,0-8.7,2.1-9.6,6.7l-3,16h11.4
	C27.1,54.2,27.7,54.8,27.7,55.6L27.7,55.6z M27.7,55.6"/>
</svg>
