<?xml version="1.0" encoding="utf-8"?>
<!-- Generator: Adobe Illustrator 22.0.1, SVG Export Plug-In . SVG Version: 6.00 Build 0)  -->
<svg version="1.1" id="Layer_1" xmlns="http://www.w3.org/2000/svg" xmlns:xlink="http://www.w3.org/1999/xlink" x="0px" y="0px"
	 viewBox="0 0 68.7 68.3" style="enable-background:new 0 0 68.7 68.3;" xml:space="preserve">
<style type="text/css">
	.st0{fill-rule:evenodd;clip-rule:evenodd;fill:#D01B49;}
</style>
<g>
	<g>
		<path class="st0" d="M60.8,51.5c-1.3,0-2.5,0.3-3.5,0.8L34.8,22.2c1-0.9,1.8-1.9,2.4-3.1L53,25.2c0,0.3-0.1,0.5-0.1,0.8
			c0,3.2,2.6,5.8,5.8,5.8c3.2,0,5.8-2.6,5.8-5.8c0-3.2-2.6-5.8-5.8-5.8c-2,0-3.8,1-4.8,2.5l-15.8-6.1c0.3-0.9,0.4-1.9,0.4-2.9
			c0-6.4-5.2-11.5-11.7-11.5c-6.4,0-11.7,5.2-11.7,11.5c0,0.6,0.1,1.2,0.2,1.8l-7.2,2c-0.8-1.2-2.1-2-3.7-2c-2.4,0-4.4,2-4.4,4.4
			c0,2.4,2,4.4,4.4,4.4c2.4,0,4.3-1.9,4.4-4.2l7.2-2c1.2,2.9,3.6,5.2,6.6,6.4l-4.1,15.3c-0.3,0-0.6,0-0.9,0c-4.8,0-8.6,3.8-8.6,8.5
			c0,4.7,3.9,8.5,8.6,8.5c4.8,0,8.6-3.8,8.6-8.5c0-3.5-2.1-6.5-5.2-7.8l4.1-15.3c0.5,0.1,1.1,0.1,1.7,0.1c2.1,0,4.1-0.6,5.8-1.5
			l22.5,30.1c-1.4,1.4-2.2,3.3-2.2,5.4c0,4.3,3.5,7.7,7.8,7.7c4.3,0,7.8-3.5,7.8-7.7C68.6,55,65.1,51.5,60.8,51.5z M58.8,22.9
			c1.8,0,3.2,1.4,3.2,3.2c0,1.7-1.4,3.2-3.2,3.2c-1.8,0-3.2-1.4-3.2-3.2C55.6,24.3,57,22.9,58.8,22.9z M4.5,21.8
			c-1,0-1.8-0.8-1.8-1.8c0-1,0.8-1.8,1.8-1.8c1,0,1.8,0.8,1.8,1.8C6.3,21,5.5,21.8,4.5,21.8z M23.7,48.3c0,3.3-2.7,5.9-6,5.9
			c-3.3,0-6-2.7-6-5.9c0-3.3,2.7-5.9,6-5.9C21,42.4,23.7,45,23.7,48.3z M17.9,13.8c0-4.9,4-8.9,9-8.9c5,0,9,4,9,8.9
			c0,4.9-4,8.9-9,8.9C21.9,22.7,17.9,18.7,17.9,13.8z M60.8,64.4c-2.9,0-5.2-2.3-5.2-5.1c0-2.8,2.3-5.1,5.2-5.1
			c2.9,0,5.2,2.3,5.2,5.1C66,62,63.6,64.4,60.8,64.4z"/>
	</g>
</g>
</svg>
