<?xml version="1.0" encoding="utf-8"?>
<!-- Generator: Adobe Illustrator 22.0.1, SVG Export Plug-In . SVG Version: 6.00 Build 0)  -->
<svg version="1.1" id="Layer_1" xmlns="http://www.w3.org/2000/svg" xmlns:xlink="http://www.w3.org/1999/xlink" x="0px" y="0px"
	 viewBox="0 0 68.7 68.3" style="enable-background:new 0 0 68.7 68.3;" xml:space="preserve">
<style type="text/css">
	.st0{fill:#D01B49;}
</style>
<g>
	<g>
		<path class="st0" d="M64.2,9.5H35.5V6.1h-2.6v3.4H4.2v45.3h18.9l-6.3,9.8l2.1,1.5l7.2-11.3h16.1l7.2,11.3l2.1-1.5l-6.3-9.8h18.9
			V9.5z M61.8,52.2h-55V12h55V52.2z M31.6,28.9L36,41.4l15.8-14.5l-0.9,10.9l2.4,0.3l1.3-15.4l-14.2-1.3l-0.3,2.5l10,1L37,36.9
			l-4.3-12.4L14.3,40.7l1.7,2L31.6,28.9z"/>
	</g>
</g>
</svg>
