<?xml version="1.0" encoding="utf-8"?>
<!-- Generator: Adobe Illustrator 22.0.1, SVG Export Plug-In . SVG Version: 6.00 Build 0)  -->
<svg version="1.1" id="Layer_1" xmlns="http://www.w3.org/2000/svg" xmlns:xlink="http://www.w3.org/1999/xlink" x="0px" y="0px"
	 viewBox="0 0 41.3 41" style="enable-background:new 0 0 41.3 41;" xml:space="preserve">
<style type="text/css">
	.st0{fill:#A8A8A7;}
</style>
<path class="st0" d="M20.7,0.5c-11,0-20,9-20,20c0,11,9,20,20,20c11,0,20-9,20-20C40.7,9.5,31.7,0.5,20.7,0.5L20.7,0.5z M29.6,15.9
	c0,0.2,0,0.4,0,0.6c0,6.1-4.6,13.1-13.1,13.1c-2.6,0-5-0.8-7.1-2.1c0.4,0,0.7,0.1,1.1,0.1c2.2,0,4.1-0.7,5.7-2c-2,0-3.7-1.4-4.3-3.2
	c0.3,0.1,0.6,0.1,0.9,0.1c0.4,0,0.8-0.1,1.2-0.2c-2.1-0.4-3.7-2.3-3.7-4.5c0,0,0,0,0-0.1c0.6,0.3,1.3,0.6,2.1,0.6
	c-1.2-0.8-2-2.2-2-3.8c0-0.8,0.2-1.6,0.6-2.3c2.3,2.8,5.7,4.6,9.5,4.8c-0.1-0.3-0.1-0.7-0.1-1c0-2.5,2.1-4.6,4.6-4.6
	c1.3,0,2.5,0.6,3.4,1.4c1-0.2,2-0.6,2.9-1.1c-0.3,1.1-1.1,2-2,2.5c0.9-0.1,1.8-0.4,2.6-0.7C31.3,14.5,30.5,15.3,29.6,15.9L29.6,15.9
	z M29.6,15.9"/>
</svg>
