<?xml version="1.0" encoding="utf-8"?>
<!-- Generator: Adobe Illustrator 22.0.1, SVG Export Plug-In . SVG Version: 6.00 Build 0)  -->
<svg version="1.1" id="" xmlns="http://www.w3.org/2000/svg" xmlns:xlink="http://www.w3.org/1999/xlink" x="0px" y="0px"
	 viewBox="0 0 68.7 68.3" style="enable-background:new 0 0 68.7 68.3;" xml:space="preserve">
<style type="text/css">
	.st0{fill:#D01B49;}
</style>
<g>
	<g>
		<path class="st0" d="M20.8,43.7h27.3V24.5H20.8V43.7z M23.8,27.5H45v13.1H23.8V27.5z M7.7,9.3h8.5c0.8,0,1.5-0.7,1.5-1.5
			c0-0.8-0.7-1.5-1.5-1.5H2.5V20c0,0.8,0.7,1.5,1.5,1.5c0.8,0,1.5-0.7,1.5-1.5v-8.5l9.5,9.5c0.3,0.3,0.7,0.4,1.1,0.4
			c0.4,0,0.8-0.1,1.1-0.4c0.6-0.6,0.6-1.6,0-2.1L7.7,9.3z M52.6,6.3C51.7,6.3,51,7,51,7.8c0,0.8,0.7,1.5,1.5,1.5H61l-9.5,9.6
			c-0.6,0.6-0.6,1.6,0,2.1c0.3,0.3,0.7,0.4,1.1,0.4c0.4,0,0.8-0.1,1.1-0.4l9.5-9.5V20c0,0.8,0.7,1.5,1.5,1.5c0.8,0,1.5-0.7,1.5-1.5
			V6.3H52.6z M17.2,47.2c-0.6-0.6-1.6-0.6-2.1,0l-9.5,9.5v-8.5c0-0.8-0.7-1.5-1.5-1.5c-0.8,0-1.5,0.7-1.5,1.5v13.6h13.6
			c0.8,0,1.5-0.7,1.5-1.5c0-0.8-0.7-1.5-1.5-1.5H7.7l9.5-9.5C17.8,48.8,17.8,47.8,17.2,47.2z M64.7,46.8c-0.8,0-1.5,0.7-1.5,1.5v8.5
			l-9.5-9.5c-0.6-0.6-1.6-0.6-2.1,0c-0.6,0.6-0.6,1.6,0,2.1l9.5,9.5h-8.5c-0.8,0-1.5,0.7-1.5,1.5c0,0.8,0.7,1.5,1.5,1.5h13.6V48.3
			C66.2,47.5,65.5,46.8,64.7,46.8z"/>
	</g>
</g>
</svg>
